# xmcd
#
# Track frame offsets: 
#        150
#        16590
#        31237
#        45768
#        58445
#        68924
#        77242
#        90969
#        103010
#        115733
#        129968
#        147424
#        157866
#        174661
#        183812
#        199274
#        211602
#
# Disc length: 3045 seconds
#
# Revision: 1
# Processed by: cddbd v1.5.1PL0 Copyright (c) Steve Scherf et al.
# Submitted via: ExactAudioCopy v0.95b3
#
DISCID=d20be311
DTITLE=Various Artist - Down on the Lounge Disc 2
DYEAR=2003
DGENRE=Jazz
TTITLE0=Buddy Greco - The Lady is a Tramp
TTITLE1=Andy Williams - Can't Take My Eyes Off You
TTITLE2=Mama Cass - Dream a Little Dream of Me
TTITLE3=Dinah Washington - Mad about the Boy
TTITLE4=Laurie Johnson Orchestra - Theme from The Avengers
TTITLE5=Shirley Bassey - Big Spender
TTITLE6=Dusty Springfield - I Just Don't Know What to Do with Myself
TTITLE7=Chris Montez - The More I See You
TTITLE8=Patti Page - Old Cape Cod
TTITLE9=Frankie Laine - Don't Fence Me In
TTITLE10=Vic Damone - Smoke Gets in Your Eyes
TTITLE11=Pat Boone - Love Letters in the Sand
TTITLE12=Doris Day - Secret Love
TTITLE13=Petula Clark - The Cat in the Window
TTITLE14=Nat King Cole - Mona Lisa
TTITLE15=Mel Torme - Comin' Home Baby
TTITLE16=Roy Ayers - Everybody Loves the Sunshine
EXTD=
EXTT0=
EXTT1=
EXTT2=
EXTT3=
EXTT4=
EXTT5=
EXTT6=
EXTT7=
EXTT8=
EXTT9=
EXTT10=
EXTT11=
EXTT12=
EXTT13=
EXTT14=
EXTT15=
EXTT16=
PLAYORDER=
